<?xml version="1.0" encoding="UTF-8"?>
<!DOCTYPE svg PUBLIC "-//W3C//DTD SVG 1.1//EN" "http://www.w3.org/Graphics/SVG/1.1/DTD/svg11.dtd">
<svg xmlns="http://www.w3.org/2000/svg" version="1.1" width="1280px" height="1280px" style="shape-rendering:geometricPrecision; text-rendering:geometricPrecision; image-rendering:optimizeQuality; fill-rule:evenodd; clip-rule:evenodd" xmlns:xlink="http://www.w3.org/1999/xlink">
<g><path style="opacity:0.994" fill="#030505" d="M 613.5,166.5 C 763.887,161.814 890.053,214.147 992,323.5C 1087.13,433.587 1125.79,561.254 1108,706.5C 1087.81,834.439 1026.98,937.939 925.5,1017C 808.976,1102.11 679.642,1130.44 537.5,1102C 407.718,1071.08 307.218,999.579 236,887.5C 167.178,770.612 149.511,646.279 183,514.5C 224.257,374.102 310.757,272.269 442.5,209C 497.071,184.607 554.071,170.44 613.5,166.5 Z M 635.5,281.5 C 725.009,282.999 795.843,319.665 848,391.5C 894.89,464.167 904.223,541.501 876,623.5C 842.906,704.589 784.072,756.756 699.5,780C 615.562,798.221 540.562,780.221 474.5,726C 397.372,653.925 371.539,566.425 397,463.5C 422.563,384.603 473.73,329.436 550.5,298C 578.121,288.042 606.455,282.542 635.5,281.5 Z M 631.5,385.5 C 654.209,383.946 673.042,391.613 688,408.5C 701.661,432.768 698.827,454.934 679.5,475C 669.21,484.23 657.377,490.73 644,494.5C 621.249,488.632 602.915,476.299 589,457.5C 575.772,432.624 580.272,411.791 602.5,395C 611.635,389.809 621.302,386.642 631.5,385.5 Z M 633.5,531.5 C 659.765,538.547 682.265,551.88 701,571.5C 714.814,590.956 716.147,611.289 705,632.5C 691.68,650.246 673.846,659.746 651.5,661C 624.866,663.726 601.699,656.226 582,638.5C 566.472,620.859 562.472,600.859 570,578.5C 577.396,563.77 588.229,552.27 602.5,544C 612.505,538.728 622.838,534.561 633.5,531.5 Z"/></g>
<g><path style="opacity:0.97" fill="#030505" d="M 622.5,349.5 C 655.34,345.958 685.007,353.791 711.5,373C 738.925,398.43 746.425,428.93 734,464.5C 729.343,474.984 722.843,484.151 714.5,492C 705.355,499.407 695.689,506.074 685.5,512C 706.328,519.837 724.162,532.004 739,548.5C 757.385,572.426 762.719,599.093 755,628.5C 743.292,662.539 720.126,684.706 685.5,695C 660.061,701.135 634.394,702.135 608.5,698C 576.559,692.629 551.392,676.796 533,650.5C 515.216,616.15 516.883,582.817 538,550.5C 544.538,542.294 552.038,535.128 560.5,529C 570.404,522.886 580.404,517.052 590.5,511.5C 571.246,501.746 556.412,487.413 546,468.5C 534.41,440.239 536.743,413.239 553,387.5C 571.215,365.809 594.381,353.142 622.5,349.5 Z M 631.5,385.5 C 621.302,386.642 611.635,389.809 602.5,395C 580.272,411.791 575.772,432.624 589,457.5C 602.915,476.299 621.249,488.632 644,494.5C 657.377,490.73 669.21,484.23 679.5,475C 698.827,454.934 701.661,432.768 688,408.5C 673.042,391.613 654.209,383.946 631.5,385.5 Z M 633.5,531.5 C 622.838,534.561 612.505,538.728 602.5,544C 588.229,552.27 577.396,563.77 570,578.5C 562.472,600.859 566.472,620.859 582,638.5C 601.699,656.226 624.866,663.726 651.5,661C 673.846,659.746 691.68,650.246 705,632.5C 716.147,611.289 714.814,590.956 701,571.5C 682.265,551.88 659.765,538.547 633.5,531.5 Z"/></g>
</svg>
