<?xml version="1.0" encoding="UTF-8"?>
<svg version="1.1" xmlns="http://www.w3.org/2000/svg" width="5333" height="5333">
<path d="M0 0 C1.08973492 0.00026688 2.17946983 0.00053375 3.30222702 0.00080872 C39.32430753 0.0118611 75.26685708 0.3644947 111.25 2.1875 C112.51934387 2.25066406 113.78868774 2.31382812 115.09649658 2.37890625 C205.28733949 6.89987548 294.99193509 16.55010406 781.25 146.1875 C781.90577026 146.4558667 782.56154053 146.7242334 783.23718262 147.00073242 C825.94103211 164.49990857 867.82781869 183.8555147 909.25 204.1875 C909.88887146 204.50092346 910.52774292 204.81434692 911.18597412 205.13726807 C925.68192141 212.25398599 940.03046317 219.57980469 954.1640625 227.39453125 C958.96699997 230.04696756 963.81955626 232.59446628 968.6875 235.125 C979.69481985 240.87473036 990.47491676 247.01622323 1001.25 253.1875 C1002.31766602 253.79819336 1003.38533203 254.40888672 1004.48535156 255.03808594 C1018.84019327 263.25721937 1033.12268792 271.58275322 1047.25 280.1875 C1048.23403809 280.78643066 1049.21807617 281.38536133 1050.23193359 282.00244141 C1096.45091618 310.18021147 1141.51930413 340.28078022 1185.25 372.1875 C1186.00603516 372.73873535 1186.76207031 373.2899707 1187.54101562 373.85791016 C1199.39384358 382.51287109 1211.09965654 391.35210065 1222.75146484 400.27539062 C1225.11969359 402.08777753 1227.49085109 403.89624282 1229.86328125 405.703125 C1241.47262441 414.54975476 1253.01323589 423.47045897 1264.28125 432.75 C1266.52468614 434.59197914 1268.77432519 436.42467834 1271.03125 438.25 C1277.9726356 443.86503284 1284.87269865 449.51714209 1291.66967773 455.30639648 C1294.97672316 458.12054273 1298.31649064 460.88789765 1301.6875 463.625 C1307.69898202 468.52130854 1313.57043431 473.57357924 1319.44287109 478.63476562 C1321.23424144 480.17395982 1323.03195887 481.70537119 1324.83203125 483.234375 C1331.53920456 488.93837405 1338.11376363 494.7528947 1344.578125 500.73046875 C1347.43513939 503.35775245 1350.34299502 505.91639691 1353.2734375 508.4609375 C1361.39603928 515.55617462 1369.31325872 522.88589651 1377.25 530.1875 C1377.75901855 530.65526855 1378.26803711 531.12303711 1378.79248047 531.60498047 C1382.62010257 535.12339737 1386.4380279 538.65213595 1390.25 542.1875 C1391.20229492 543.06994385 1391.20229492 543.06994385 1392.17382812 543.97021484 C1399.83652092 551.08048966 1407.43630983 558.22980274 1414.73828125 565.71264648 C1417.34613883 568.36663362 1420.01693253 570.87295181 1422.84741211 573.28930664 C1427.6893702 577.50917191 1432.21937958 582.01305556 1436.75390625 586.55859375 C1437.6360228 587.43975357 1438.51813934 588.32091339 1439.42698669 589.22877502 C1441.75232809 591.5532675 1444.07523618 593.88015907 1446.39733887 596.20788574 C1447.81144824 597.62394678 1449.22749121 599.03804321 1450.64428711 600.45141602 C1453.3918672 603.19278256 1456.13592106 605.93763034 1458.87890625 608.68359375 C1460.13230553 609.93395668 1460.13230553 609.93395668 1461.411026 611.20957947 C1465.69541905 615.51097074 1469.81530031 619.8885587 1473.7752533 624.4903717 C1475.50027456 626.47551423 1477.3097139 628.34669437 1479.1875 630.1875 C1479.85523437 630.8475 1480.52296875 631.5075 1481.2109375 632.1875 C1481.88382813 632.8475 1482.55671875 633.5075 1483.25 634.1875 C1487.8949313 638.74344794 1492.35985204 643.36333279 1496.60644531 648.29443359 C1499.04040049 651.09789296 1501.58546 653.79258124 1504.125 656.5 C1508.56465293 661.27160895 1512.76659141 666.1691799 1516.84765625 671.25390625 C1519.69960246 674.73652674 1522.65809176 678.11541812 1525.625 681.5 C1530.33794584 686.89052154 1534.84363697 692.3964873 1539.22607422 698.05786133 C1542.30417046 702.0220423 1545.48478188 705.87634573 1548.75 709.6875 C1552.95990595 714.60725032 1557.00427962 719.63131185 1560.97998047 724.74169922 C1564.54728049 729.31920809 1568.19912813 733.82190051 1571.875 738.3125 C1576.34519436 743.78618086 1580.68140246 749.33031338 1584.88671875 755.01171875 C1587.74210539 758.84879203 1590.65096996 762.64296495 1593.5625 766.4375 C1603.78126507 779.78130601 1613.79773338 793.25124581 1623.60449219 806.90087891 C1625.24501669 809.18057513 1626.89101689 811.45620498 1628.5390625 813.73046875 C1633.85372507 821.065732 1639.14566238 828.41609597 1644.375 835.8125 C1644.80498291 836.419729 1645.23496582 837.02695801 1645.67797852 837.65258789 C1655.6638582 851.81834745 1665.32821285 866.20229871 1674.9375 880.625 C1675.86000549 882.00921143 1675.86000549 882.00921143 1676.80114746 883.42138672 C1686.4497055 897.9070568 1696.02054938 912.42992758 1705.25 927.1875 C1706.18996826 928.69014404 1706.18996826 928.69014404 1707.14892578 930.22314453 C1718.09573629 947.77479586 1728.67181672 965.54434572 1739.17449951 983.36395264 C1740.1801971 985.06914683 1741.18792358 986.77314396 1742.19580078 988.47705078 C1776.65798972 1046.76403142 1807.63205399 1107.32638378 1835.31506348 1169.10339355 C1836.23479868 1171.15361409 1837.15751334 1173.20246812 1838.08105469 1175.25097656 C1877.36655305 1262.46767142 1909.70333962 1353.10635516 1999.98571777 1838.22943115 C2000.23586738 1841.97584029 2000.49493499 1845.72154559 2000.75488281 1849.46728516 C2003.47975375 1889.64398179 2003.53682304 1929.85483567 2003.56088209 1970.10411119 C2003.56248257 1972.16505009 2003.56508153 1974.22598512 2003.56805801 1976.28692245 C2003.61928632 2012.30120784 2003.08888552 2048.21731455 2001.25 2084.1875 C2001.19178259 2085.3407074 2001.19178259 2085.3407074 2001.13238907 2086.51721191 C2000.66463077 2095.74578582 2000.1136131 2104.9674833 1999.5 2114.1875 C1999.41829559 2115.43817261 1999.33659119 2116.68884521 1999.25241089 2117.97741699 C1997.18214128 2149.43300205 1994.37587795 2180.82062892 1991.25 2212.1875 C1991.14814392 2213.21905212 1991.04628784 2214.25060425 1990.94134521 2215.31341553 C1983.90863393 2286.21825268 1968.95500859 2356.97615561 1952.25 2426.1875 C1951.9908783 2427.26439087 1951.73175659 2428.34128174 1951.46478271 2429.45080566 C1926.62891198 2532.55135193 1894.70971734 2633.95074585 1792.39510345 2867.14182663 C1791.45493961 2869.02752124 1790.51587758 2870.9137613 1789.57696533 2872.80007935 C1782.16196339 2887.68733694 1774.52846396 2902.42137332 1766.47195435 2916.97235107 C1764.8662215 2919.88321055 1763.2932761 2922.81014353 1761.7265625 2925.7421875 C1754.81796771 2938.64486648 1747.60055156 2951.33336095 1740.16259766 2963.9375 C1738.11247776 2967.421186 1736.07633804 2970.91277408 1734.04296875 2974.40625 C1721.27737412 2996.32180784 1707.93646013 3017.83481161 1694.25 3039.1875 C1693.76821289 3039.9398291 1693.28642578 3040.6921582 1692.79003906 3041.46728516 C1664.2030124 3086.05209075 1633.4655095 3129.16070154 1601.25 3171.1875 C1600.30074526 3172.42835789 1599.35152242 3173.66924017 1598.40234375 3174.91015625 C1588.71048101 3187.56368151 1578.80986207 3200.03555677 1568.7265625 3212.37890625 C1567.41952459 3213.9798548 1566.11576644 3215.58347976 1564.8125 3217.1875 C1560.3841241 3222.6280761 1555.88414335 3228.00205996 1551.33984375 3233.34570312 C1548.3899459 3236.82030269 1545.4931728 3240.33225694 1542.625 3243.875 C1539.04716785 3248.27407833 1535.3044148 3252.48300378 1531.484375 3256.671875 C1529.23818434 3259.20080295 1527.11468782 3261.79799914 1525 3264.4375 C1520.3410841 3270.19984335 1515.31672284 3275.57242006 1510.25 3280.97265625 C1507.43981526 3283.9705904 1504.72508363 3287.03900417 1502.0390625 3290.1484375 C1498.32732151 3294.37884972 1494.48823647 3298.49624217 1490.67626953 3302.63623047 C1488.42428659 3305.08557994 1486.18207349 3307.54386141 1483.9375 3310 C1465.45002633 3330.1684569 1465.45002633 3330.1684569 1455.84765625 3339.52734375 C1453.85729246 3341.56559599 1452.00768741 3343.61261445 1450.15966797 3345.7734375 C1446.00207449 3350.54043051 1441.57443673 3355.00701225 1437.09765625 3359.47265625 C1436.23869247 3360.33257675 1435.3797287 3361.19249725 1434.49473572 3362.07847595 C1432.68822985 3363.88565861 1430.88047538 3365.69159392 1429.0715332 3367.49633789 C1426.3206319 3370.24188393 1423.57510779 3372.99272546 1420.83007812 3375.74414062 C1419.06542468 3377.5081332 1417.30046103 3379.2718155 1415.53515625 3381.03515625 C1414.72345474 3381.84888199 1413.91175323 3382.66260773 1413.07545471 3383.50099182 C1408.85076305 3387.70855854 1404.55897341 3391.7667039 1400.02146912 3395.63621521 C1396.94400226 3398.33116907 1394.11009849 3401.2658679 1391.25 3404.1875 C1386.95758029 3408.53014347 1382.63465427 3412.73425785 1377.97265625 3416.68359375 C1376.14569493 3418.27855998 1374.44940713 3419.95767842 1372.75 3421.6875 C1369.85000647 3424.6329073 1366.81373569 3427.34213709 1363.68359375 3430.0390625 C1360.48404847 3432.86370119 1357.36947136 3435.77500584 1354.25 3438.6875 C1349.94466115 3442.70355179 1345.62032328 3446.67879246 1341.16015625 3450.5234375 C1338.88795489 3452.50290126 1336.66540128 3454.5333317 1334.4375 3456.5625 C1330.97469918 3459.69172827 1327.44320997 3462.69250349 1323.8125 3465.625 C1320.00912497 3468.70086588 1316.34917348 3471.87503166 1312.75 3475.1875 C1308.3836419 3479.20232927 1303.88463593 3482.97934955 1299.26953125 3486.703125 C1295.6834536 3489.6536365 1292.185131 3492.69568762 1288.6875 3495.75 C1283.75015579 3500.05534933 1278.76235021 3504.25931894 1273.6171875 3508.31640625 C1271.09661641 3510.30873884 1268.60883778 3512.33707375 1266.125 3514.375 C1264.16672433 3515.97923713 1262.2084196 3517.58343859 1260.25 3519.1875 C1259.64349609 3519.68443359 1259.03699219 3520.18136719 1258.41210938 3520.69335938 C1249.47059373 3528.01238664 1240.46435097 3535.21326248 1231.25 3542.1875 C1230.64220703 3542.64979004 1230.03441406 3543.11208008 1229.40820312 3543.58837891 C1219.88099189 3550.83051029 1210.20114191 3557.82362886 1200.39550781 3564.68310547 C1198.24623656 3566.19013886 1196.10265729 3567.70491359 1193.9609375 3569.22265625 C1193.24478271 3569.72990234 1192.52862793 3570.23714844 1191.79077148 3570.75976562 C1190.4721446 3571.69405448 1189.15388943 3572.62886843 1187.83618164 3573.56445312 C1174.21560926 3583.19830337 1160.37607375 3592.5227877 1146.55029297 3601.8581543 C1144.68260009 3603.11994611 1142.81573804 3604.38296859 1140.94970703 3605.6472168 C1130.06275148 3613.02301961 1119.12070171 3620.25399528 1107.92388916 3627.15084839 C1104.65612897 3629.17459581 1101.42656704 3631.25802797 1098.19091797 3633.33251953 C1085.99671647 3641.1504131 1073.65335273 3648.70709336 1061.25 3656.1875 C1060.40228027 3656.70022461 1059.55456055 3657.21294922 1058.68115234 3657.74121094 C1037.42143368 3670.59825898 1015.93941956 3683.06976023 994.25 3695.1875 C993.16686523 3695.79287598 992.08373047 3696.39825195 990.96777344 3697.02197266 C945.84929058 3722.18892039 899.94939215 3746.40476533 852.81152344 3767.58203125 C849.44611277 3769.099096 846.08917403 3770.63335119 842.73379517 3772.17240906 C745.37095244 3816.79941502 644.07414318 3853.23229261 517.73736572 3886.56109619 C515.23619587 3887.19097635 512.73597299 3887.82451488 510.23583984 3888.45849609 C482.72623599 3895.41791093 455.05687926 3901.53790676 427.25 3907.1875 C426.29542908 3907.38150391 425.34085815 3907.57550781 424.35736084 3907.77539062 C344.05598741 3924.04138634 262.7741708 3934.59589406 181.0625 3940.375 C179.96489349 3940.45399536 178.86728699 3940.53299072 177.73641968 3940.61437988 C169.24520794 3941.21777161 160.75028535 3941.73040711 152.25 3942.1875 C151.04873222 3942.25238302 151.04873222 3942.25238302 149.82319641 3942.31857681 C115.9965064 3944.12403825 82.21240788 3944.55380509 48.34180832 3944.50555801 C45.67065422 3944.50181538 42.99951258 3944.49877769 40.3283577 3944.49712753 C0.14463306 3944.47223565 -39.94746574 3944.19235918 -80.05352783 3941.44073486 C-83.24963398 3941.22177866 -86.44609059 3941.00924941 -89.64282513 3940.79970169 C-172.20091563 3935.37681274 -254.20676088 3925.18195834 -335.75 3911.1875 C-336.9711853 3910.97865173 -338.19237061 3910.76980347 -339.45056152 3910.55462646 C-424.66014351 3895.92413014 -508.48187737 3871.59210529 -590.24023438 3843.72070312 C-594.19907947 3842.37209512 -598.16346026 3841.04045088 -602.12904358 3839.71180725 C-668.87428872 3817.33682829 -734.33644102 3790.99018866 -798.1953125 3761.37078857 C-800.08701356 3760.49458425 -801.97975211 3759.62061908 -803.87304688 3758.74786377 C-821.87661022 3750.44514178 -839.71958232 3741.86519256 -857.43945312 3732.97314453 C-860.63383303 3731.37021371 -863.8318434 3729.77467589 -867.03080559 3728.18091393 C-881.6983183 3720.86930039 -896.22050127 3713.34450034 -910.55700684 3705.39837646 C-913.46002587 3703.79545426 -916.37982028 3702.2267609 -919.3046875 3700.6640625 C-931.34399391 3694.21696861 -943.19607337 3687.50606538 -954.96484375 3680.578125 C-959.44399203 3677.94306977 -963.94934404 3675.36004764 -968.47363281 3672.8034668 C-989.02996238 3661.18043971 -1009.10736295 3648.74068073 -1028.96777344 3635.97070312 C-1031.90188281 3634.09015426 -1034.84460129 3632.22366956 -1037.7890625 3630.359375 C-1064.75268705 3613.25673314 -1091.08813756 3595.1328294 -1116.98632812 3576.45654297 C-1118.94036621 3575.05052276 -1120.89982357 3573.65223131 -1122.859375 3572.25390625 C-1133.90134564 3564.35241387 -1144.71291069 3556.17134198 -1155.48974609 3547.91308594 C-1158.29032021 3545.77499371 -1161.11079573 3543.66591203 -1163.9375 3541.5625 C-1176.89400461 3531.86815942 -1189.5452293 3521.79735378 -1202.07080078 3511.55517578 C-1204.26291359 3509.76974165 -1206.47365396 3508.00838362 -1208.6875 3506.25 C-1220.32984481 3496.95569112 -1231.7571753 3487.40547608 -1243.03076172 3477.66845703 C-1244.8088704 3476.13678886 -1246.59298135 3474.61238886 -1248.37890625 3473.08984375 C-1254.49949103 3467.86956241 -1260.56467736 3462.60480409 -1266.5234375 3457.19921875 C-1268.58104391 3455.34015331 -1270.65846763 3453.50821642 -1272.75 3451.6875 C-1281.03934639 3444.45918995 -1289.13723427 3437.01796768 -1297.23535156 3429.57714844 C-1298.69374405 3428.23911329 -1300.15540193 3426.90463992 -1301.6171875 3425.5703125 C-1304.66850834 3422.78360485 -1307.71251858 3419.98927642 -1310.75 3417.1875 C-1311.6469458 3416.36040527 -1311.6469458 3416.36040527 -1312.56201172 3415.51660156 C-1321.17209154 3407.55829837 -1329.59754702 3399.44977925 -1337.81518555 3391.08544922 C-1341.65656865 3387.19476343 -1345.60459975 3383.52909615 -1349.74560547 3379.96044922 C-1353.24278228 3376.86708771 -1356.52173362 3373.5599173 -1359.8125 3370.25 C-1360.48087891 3369.58548828 -1361.14925781 3368.92097656 -1361.83789062 3368.23632812 C-1365.05040934 3365.01756545 -1368.15970034 3361.7605194 -1371.12109375 3358.30859375 C-1375.40554441 3353.34353235 -1380.08053427 3348.78727221 -1384.75 3344.1875 C-1390.1229205 3338.89477234 -1395.3822776 3333.59441043 -1400.29296875 3327.8671875 C-1402.02166636 3325.87431895 -1403.85252953 3324.01954045 -1405.75 3322.1875 C-1408.87410984 3319.10504495 -1411.77701088 3315.91240228 -1414.63671875 3312.5859375 C-1417.44736418 3309.39603677 -1420.34863722 3306.29478707 -1423.25 3303.1875 C-1427.26607153 3298.88218076 -1431.2412934 3294.55782219 -1435.0859375 3290.09765625 C-1437.06540126 3287.82545489 -1439.0958317 3285.60290128 -1441.125 3283.375 C-1444.25422827 3279.91219918 -1447.25500349 3276.38070997 -1450.1875 3272.75 C-1453.26336588 3268.94662497 -1456.43753166 3265.28667348 -1459.75 3261.6875 C-1463.78954818 3257.29371452 -1467.59679619 3252.76911176 -1471.34375 3248.125 C-1474.0477877 3244.82396697 -1476.83111232 3241.59984787 -1479.625 3238.375 C-1484.13701575 3233.15424949 -1488.45255046 3227.81433491 -1492.6796875 3222.36132812 C-1495.72961708 3218.44186274 -1498.88539842 3214.63856887 -1502.125 3210.875 C-1506.92161568 3205.28640099 -1511.40366272 3199.49044031 -1515.84765625 3193.61914062 C-1519.36693712 3188.9751839 -1522.95837714 3184.40323618 -1526.625 3179.875 C-1533.24320884 3171.674176 -1539.52604957 3163.22905465 -1545.81787109 3154.77685547 C-1547.73202038 3152.21159551 -1549.65523618 3149.6534281 -1551.58203125 3147.09765625 C-1563.4182206 3131.3930538 -1574.9169135 3115.46325179 -1586.21533203 3099.36816406 C-1587.75077531 3097.18639834 -1589.29461257 3095.01077901 -1590.83984375 3092.8359375 C-1600.84424146 3078.70674732 -1610.40980589 3064.28927066 -1619.97958374 3049.86424255 C-1622.92131741 3045.43085193 -1625.8786222 3041.00826862 -1628.84643555 3036.59228516 C-1641.60686548 3017.57038839 -1653.47756687 2998.12693141 -1664.75 2978.1875 C-1665.35376465 2977.12031738 -1665.9575293 2976.05313477 -1666.57958984 2974.95361328 C-1674.77599848 2960.44103133 -1682.82294403 2945.84876479 -1690.75 2931.1875 C-1691.3073584 2930.15915039 -1691.8647168 2929.13080078 -1692.43896484 2928.07128906 C-1702.82025036 2908.89830738 -1712.86413203 2889.56053125 -1722.75915527 2870.13275146 C-1723.67355322 2868.33758225 -1724.58916284 2866.54303036 -1725.50488281 2864.74853516 C-1732.73528715 2850.55085128 -1739.53841455 2836.18096066 -1746.19474792 2821.7061615 C-1748.17784958 2817.4034724 -1750.19897466 2813.12004927 -1752.23828125 2808.84375 C-1795.10181162 2718.82317062 -1830.13007133 2624.47690056 -1937.3125 2021.5 C-1937.33334656 2020.41033936 -1937.35419312 2019.32067871 -1937.37567139 2018.19799805 C-1937.6895555 2001.59271115 -1937.97410947 1984.99398588 -1937.77606201 1968.38543701 C-1937.75765304 1966.83291801 -1937.7403884 1965.28038523 -1937.72393799 1963.72784424 C-1936.65816353 1863.97274182 -1928.20206676 1764.684251 -1815.75 1290.1875 C-1815.41073486 1289.28849976 -1815.07146973 1288.38949951 -1814.72192383 1287.46325684 C-1783.12186833 1203.86259754 -1747.81169074 1120.32762984 -1701.83984375 1036.80078125 C-1698.40897857 1030.60757753 -1695.10586146 1024.3475024 -1691.79229736 1018.09115601 C-1685.01850051 1005.3132849 -1678.03977438 992.67932639 -1670.75 980.1875 C-1669.78532071 978.52693751 -1668.82064347 976.86637382 -1667.85601807 975.20578003 C-1653.88682208 951.17463215 -1639.57632967 927.36541754 -1624.54199219 903.98291016 C-1622.63555112 901.00896599 -1620.74257618 898.02674415 -1618.8515625 895.04296875 C-1610.61550886 882.06888426 -1602.16267639 869.27379343 -1593.43261719 856.62695312 C-1591.87921293 854.37483251 -1590.33250603 852.11832911 -1588.7890625 849.859375 C-1570.02155616 822.41210403 -1550.51709102 795.44455388 -1530.22558594 769.10400391 C-1528.8481226 767.3149425 -1527.47411115 765.52330198 -1526.1015625 763.73046875 C-1517.16590427 752.06693667 -1508.09555953 740.52610897 -1498.75 729.1875 C-1497.24928825 727.35474924 -1495.74929362 725.52141105 -1494.25 723.6875 C-1493.50363281 722.77613281 -1492.75726562 721.86476563 -1491.98828125 720.92578125 C-1490.52392044 719.13430319 -1489.06284469 717.34013362 -1487.60546875 715.54296875 C-1482.89198421 709.7424103 -1478.07574095 704.04300037 -1473.19433594 698.3840332 C-1470.13021282 694.82401365 -1467.13431772 691.22098211 -1464.1875 687.5625 C-1460.57353745 683.10549736 -1456.75310167 678.87495378 -1452.84448242 674.6784668 C-1449.75884267 671.34593255 -1446.84824112 667.91592561 -1444 664.375 C-1440.98274522 660.62759104 -1437.86376282 657.18331252 -1434.41015625 653.83984375 C-1432.70615774 652.14386406 -1431.13285917 650.38260304 -1429.5625 648.5625 C-1424.98087399 643.25799522 -1420.20433077 638.13509411 -1415.43408203 633.00097656 C-1413.69207827 631.12512792 -1411.9534829 629.24615457 -1410.21484375 627.3671875 C-1404.30398649 620.99311204 -1398.36564025 614.68712908 -1392.12890625 608.62890625 C-1390.21669686 606.66645819 -1388.4394814 604.68012454 -1386.65966797 602.6015625 C-1382.56876715 597.91286511 -1378.22058782 593.5140168 -1373.81640625 589.12109375 C-1372.97963852 588.28336929 -1372.14287079 587.44564484 -1371.28074646 586.58253479 C-1369.52131896 584.82243065 -1367.76064347 583.06357323 -1365.9987793 581.3059082 C-1363.32030589 578.63279028 -1360.64721127 575.95437749 -1357.97460938 573.27539062 C-1356.25552885 571.55697097 -1354.53613811 569.83886158 -1352.81640625 568.12109375 C-1352.02657852 567.32924179 -1351.23675079 566.53738983 -1350.42298889 565.72154236 C-1346.24460783 561.56054611 -1341.99289278 557.55472103 -1337.50779724 553.72511292 C-1334.6103242 551.1905817 -1331.93694985 548.44145608 -1329.25 545.6875 C-1325.26147194 541.5995074 -1321.15583272 537.75215139 -1316.83398438 534.01757812 C-1313.21438338 530.83897819 -1309.74055292 527.50638638 -1306.25 524.1875 C-1301.43744023 519.6116235 -1296.58054365 515.11932119 -1291.56298828 510.76855469 C-1289.14631015 508.66103952 -1286.79273937 506.48825768 -1284.4375 504.3125 C-1279.92096163 500.18843324 -1275.25866984 496.30813135 -1270.5 492.46875 C-1267.66900422 490.12031032 -1264.95616402 487.67840098 -1262.25 485.1875 C-1257.85971431 481.15116945 -1253.3382438 477.34719471 -1248.69921875 473.6015625 C-1245.33630845 470.84887566 -1242.04086798 468.02550033 -1238.75 465.1875 C-1232.82773459 460.08859144 -1226.82035643 455.10962763 -1220.75 450.1875 C-1219.53601933 449.19194133 -1218.32250776 448.19581046 -1217.109375 447.19921875 C-1209.52443417 440.98211604 -1201.84742932 434.91610862 -1194.03222656 428.9909668 C-1189.41654144 425.48492274 -1184.87785092 421.899405 -1180.375 418.25 C-1173.23252367 412.47842758 -1165.85808249 407.04647594 -1158.4453125 401.62890625 C-1154.16337387 398.49912532 -1149.9208623 395.3200104 -1145.6875 392.125 C-1131.47449669 381.4302423 -1116.95603575 371.16962104 -1102.35839844 361.00878906 C-1099.76674238 359.19919021 -1097.18340486 357.37825377 -1094.6015625 355.5546875 C-1062.46860499 332.92953176 -1029.26001866 311.70511775 -995.75 291.1875 C-994.15913574 290.21127686 -994.15913574 290.21127686 -992.53613281 289.21533203 C-976.84656678 279.59675016 -961.04585716 270.20714502 -945.0625 261.08203125 C-942.22758225 259.46064551 -939.39663211 257.832619 -936.56796265 256.20036316 C-922.4509117 248.05513669 -908.23670057 240.12992136 -893.85546875 232.45703125 C-890.11353172 230.46020762 -886.3847329 228.44414829 -882.67578125 226.38671875 C-864.41861408 216.26484162 -845.78304196 206.86826329 -827.17211914 197.418396 C-824.92289684 196.27536439 -822.67501858 195.12974641 -820.42773438 193.98291016 C-738.73511202 152.31759362 -651.21209319 120.81635234 -109.35046387 3.41278076 C-107.02024816 3.21091187 -104.69027796 3.00644378 -102.36035156 2.80126953 C-68.31383263 -0.15071543 -34.14593533 -0.01876972 0 0 Z M-365.75 562.1875 C-367.05988239 562.77419487 -368.37011538 563.36010749 -369.68066406 563.9453125 C-408.54029025 581.30195493 -446.93837432 599.78539205 -483.75 621.1875 C-485.49712538 622.19624953 -487.24425282 623.2049955 -488.99143982 624.21363831 C-532.41380403 649.30807504 -574.1966867 677.34089089 -613.75 708.1875 C-614.89971491 709.07815685 -616.04945528 709.96878084 -617.19921875 710.859375 C-624.16548641 716.27470217 -630.96680975 721.84784283 -637.67578125 727.578125 C-640.45733088 729.95019035 -643.28348661 732.26242712 -646.125 734.5625 C-657.05062094 743.47132754 -667.58045202 752.81758032 -677.86987305 762.45092773 C-679.24501921 763.72107637 -680.63390203 764.97639747 -682.03051758 766.22290039 C-692.06323744 775.24325136 -701.54368691 784.8287464 -711.06958008 794.37670898 C-713.57165783 796.88451442 -716.07824411 799.38775808 -718.58616352 801.88971996 C-720.54498948 803.84490708 -722.50139662 805.80250067 -724.45711327 807.7607975 C-725.82214315 809.1268013 -727.18915563 810.49082303 -728.55622864 811.8547821 C-732.95451323 816.26953918 -737.22219841 820.73753901 -741.27412415 825.47351074 C-743.64304693 828.22462846 -746.141557 830.85269407 -748.625 833.5 C-753.15901694 838.3685575 -757.43492781 843.38082164 -761.6015625 848.5703125 C-763.76511772 851.20591613 -766.0138956 853.73173375 -768.3125 856.25 C-771.88765575 860.18267133 -775.25891266 864.21985465 -778.546875 868.39453125 C-780.14843157 870.42487335 -781.76117784 872.4415487 -783.390625 874.44921875 C-791.14330242 884.02076815 -798.56487781 893.82078376 -805.90478516 903.71142578 C-807.60513775 905.99311088 -809.32093604 908.26200426 -811.04296875 910.52734375 C-821.22290993 924.01095243 -830.49098826 938.10235814 -839.79057312 952.19926453 C-841.96709258 955.498053 -844.15110239 958.79119561 -846.35644531 962.07080078 C-851.76881026 970.12303283 -856.98028139 978.25723485 -862 986.5625 C-862.53892883 987.45225525 -862.53892883 987.45225525 -863.08874512 988.35998535 C-870.03473043 999.8401661 -876.67675985 1011.47743107 -883.13085938 1023.24169922 C-884.65393646 1026.01272577 -886.19248818 1028.77456618 -887.734375 1031.53515625 C-904.21694594 1061.26784097 -919.39794874 1091.9244651 -932.75 1123.1875 C-933.33301212 1124.54385067 -933.91618872 1125.90013066 -934.49951172 1127.25634766 C-944.31200237 1150.11981859 -953.34804654 1173.24962252 -961.82495117 1196.64001465 C-962.74734736 1199.18019491 -963.67690204 1201.71766867 -964.60742188 1204.25488281 C-973.75095259 1229.27624299 -980.71838871 1254.35878981 -986.17248535 1280.4284668 C-986.75453677 1283.20917408 -987.34314963 1285.98843444 -987.93261719 1288.76757812 C-1001.92752648 1355.01746969 -1011.54013035 1422.51236721 -1014.75 1490.1875 C-1014.79236786 1491.07542236 -1014.83473572 1491.96334473 -1014.87838745 1492.87817383 C-1015.69324983 1510.48312212 -1015.9525032 1528.06499163 -1015.9375 1545.6875 C-1015.93723312 1546.34640606 -1015.93696625 1547.00531212 -1015.93669128 1547.68418503 C-1015.89418335 1631.77074987 -1006.20881663 1715.53526939 -912.75 1993.1875 C-912.26176758 1994.19119629 -911.77353516 1995.19489258 -911.27050781 1996.22900391 C-904.4129993 2010.30339597 -897.04776242 2023.994554 -889.24462891 2037.56542969 C-887.45922587 2040.69761339 -885.72573062 2043.85600387 -883.99804688 2047.02026367 C-870.21774385 2072.21131596 -854.66961649 2096.66064109 -838.17333984 2120.15625 C-836.59325586 2122.41118975 -835.02490228 2124.67405286 -833.45703125 2126.9375 C-822.30632057 2142.99964726 -810.77913652 2158.77151922 -798.75 2174.1875 C-798.11529785 2175.00347656 -798.11529785 2175.00347656 -797.46777344 2175.8359375 C-786.98265987 2189.3090368 -776.24087673 2202.57171108 -765.14892578 2215.55029297 C-763.66854166 2217.28283326 -762.19168642 2219.01834661 -760.71484375 2220.75390625 C-755.47489515 2226.90083268 -750.18244633 2232.98667363 -744.75390625 2238.96875 C-742.93688018 2240.98058393 -741.15055608 2243.01410434 -739.375 2245.0625 C-735.07977857 2249.98966206 -730.64531974 2254.78819309 -726.21484375 2259.59326172 C-724.7828795 2261.15171614 -723.35924296 2262.71737771 -721.9375 2264.28515625 C-715.63337765 2271.21084219 -709.12884846 2277.89543258 -702.44458008 2284.45605469 C-698.5649783 2288.28420286 -694.88997786 2292.2175639 -691.34667969 2296.35986328 C-687.56380744 2300.68992164 -683.45124113 2304.62121269 -679.078125 2308.34765625 C-674.46525202 2312.36422455 -670.21462119 2316.69471893 -665.9375 2321.0625 C-659.48127235 2327.57975928 -652.9961164 2333.55944843 -645.75 2339.1875 C-644.52712342 2340.18404401 -643.30729863 2341.18433964 -642.08984375 2342.1875 C-633.5436057 2349.22588788 -624.82641652 2355.97670405 -615.93066406 2362.56591797 C-613.58978775 2364.30663679 -611.25885458 2366.06005339 -608.9296875 2367.81640625 C-591.11519835 2381.24837846 -573.06542125 2394.11307195 -554.44238281 2406.40576172 C-551.5196282 2408.33995316 -548.61021255 2410.29312481 -545.703125 2412.25073242 C-530.05755807 2422.76692446 -513.98588831 2432.61389463 -497.75 2442.1875 C-496.79303223 2442.75307617 -495.83606445 2443.31865234 -494.85009766 2443.90136719 C-476.77182672 2454.55353718 -458.37475501 2464.53109469 -439.75 2474.1875 C-439.12222656 2474.51341125 -438.49445312 2474.83932251 -437.84765625 2475.17510986 C-365.47361142 2512.69686063 -287.9103466 2540.86729826 -28.75 2585.1875 C-27.89875549 2585.22986786 -27.04751099 2585.27223572 -26.17047119 2585.31588745 C-8.90377767 2586.15168494 8.33962221 2586.38968538 25.625 2586.375 C26.28473438 2586.37473312 26.94446877 2586.37446625 27.6241951 2586.37419128 C99.79745175 2586.3377453 171.24181239 2578.96835537 242.25 2566.1875 C243.14674438 2566.02743469 244.04348877 2565.86736938 244.96740723 2565.70245361 C270.58678294 2561.12122129 295.4308656 2555.01389567 320.25 2547.1875 C321.2040271 2546.88676575 322.1580542 2546.58603149 323.14099121 2546.27618408 C360.05089307 2534.61022447 396.47476454 2521.99825184 432.25 2507.1875 C432.91499512 2506.91268799 433.57999023 2506.63787598 434.26513672 2506.35473633 C477.83192107 2488.3254922 520.46384045 2467.87083706 561.25 2444.1875 C562.42499671 2443.50839527 563.60013325 2442.82953243 564.77539062 2442.15087891 C578.26769911 2434.35409363 591.74079483 2426.54860264 604.70263672 2417.88769531 C607.27656717 2416.16976818 609.85687859 2414.46178979 612.43823242 2412.75505066 C633.08099353 2399.10225021 653.27242098 2385.10582009 672.89111328 2370.00292969 C674.96486067 2368.40694691 677.04187968 2366.81541154 679.12109375 2365.2265625 C685.56551824 2360.29712047 691.94490063 2355.29402617 698.25 2350.1875 C699.09820313 2349.50300781 699.94640625 2348.81851563 700.8203125 2348.11328125 C711.12730007 2339.74448813 721.2040506 2331.11038357 731.03515625 2322.1875 C733.02412502 2320.39146471 735.03563194 2318.62796697 737.0625 2316.875 C744.78854195 2310.1382683 752.36611946 2303.19693882 759.53564453 2295.86938477 C761.25911182 2294.17856077 763.04617679 2292.61354282 764.8828125 2291.046875 C769.55968639 2286.97651059 773.94099608 2282.64375076 778.3125 2278.25 C779.07626953 2277.49009766 779.84003906 2276.73019531 780.62695312 2275.94726562 C784.82801758 2271.73901372 788.84483449 2267.4371441 792.72436523 2262.93139648 C794.63649614 2260.7457106 796.6661588 2258.70913698 798.75 2256.6875 C802.09933729 2253.37763302 805.24925956 2249.98003051 808.3125 2246.40625 C810.23568756 2244.20389006 812.2103053 2242.05509359 814.19921875 2239.91210938 C818.9362247 2234.80522762 823.44386643 2229.58583743 827.8125 2224.15625 C830.67926803 2220.66467355 833.64793318 2217.27240453 836.625 2213.875 C842.23650283 2207.44516991 847.56759888 2200.84566691 852.77832031 2194.08886719 C854.3610899 2192.04397509 855.95679524 2190.0096568 857.5546875 2187.9765625 C902.66908902 2130.48154637 941.18919665 2068.17769089 974.28710938 2003.07751465 C975.25693148 2001.17389451 976.23132683 1999.27268142 977.20703125 1997.37207031 C986.9542813 1978.37066161 995.97536852 1959.12097159 1004.47935486 1939.53152466 C1006.41944762 1935.06680625 1008.4055773 1930.62671916 1010.4296875 1926.19921875 C1047.59089421 1843.96628154 1066.16749961 1747.98357373 1084.875 1555.75 C1084.89573578 1554.99666382 1084.91647156 1554.24332764 1084.93783569 1553.46716309 C1087.21735177 1467.60263918 1078.23112291 1381.18593519 1035.25 1215.1875 C1035.00354736 1214.4223407 1034.75709473 1213.6571814 1034.50317383 1212.86883545 C1017.52235844 1160.33001133 995.40560759 1109.78287361 971.25 1060.1875 C970.81977539 1059.30368652 970.38955078 1058.41987305 969.94628906 1057.50927734 C963.43534892 1044.18497635 956.43924985 1031.15642816 949.25 1018.1875 C948.70327637 1017.19588867 948.15655273 1016.20427734 947.59326172 1015.18261719 C938.8321461 999.29977461 929.71846612 983.65894464 920.25 968.1875 C919.60321289 967.13014648 918.95642578 966.07279297 918.29003906 964.98339844 C910.99526719 953.0954881 903.6598767 941.32345362 895.25 930.1875 C894.6504248 929.3924707 894.05084961 928.59744141 893.43310547 927.77832031 C889.33623224 922.35784189 885.21296208 916.95804149 881.07568359 911.56835938 C879.53132058 909.55436792 877.99225066 907.53658622 876.45703125 905.515625 C870.37995501 897.54503887 864.08729574 889.76256986 857.73828125 882.0078125 C856.43590621 880.41488135 855.13933968 878.8172048 853.84375 877.21875 C848.78259036 870.98398812 843.59048982 864.87088156 838.34765625 858.7890625 C836.32255881 856.43967024 834.3097527 854.0807486 832.30859375 851.7109375 C826.42506188 844.75954459 820.36851337 838.01538394 814.12304688 831.38671875 C811.14405863 828.22425418 808.20687959 825.04633364 805.375 821.75 C802.55682057 818.47156514 799.5469993 815.43977518 796.4375 812.4375 C794.67869303 810.6284414 793.06332756 808.79985862 791.43359375 806.87890625 C786.04535683 800.67805486 780.15878011 794.94761247 774.34399414 789.15112305 C772.3173702 787.12985732 770.29614453 785.10330426 768.27539062 783.07617188 C759.73992216 774.53217013 759.73992216 774.53217013 750.75170898 766.47094727 C748.80930801 764.81085916 747.02406356 763.02492298 745.25 761.1875 C742.1001997 757.99488688 738.83780511 755.01588721 735.4375 752.09375 C732.89488601 749.87804352 730.41889802 747.59651408 727.9375 745.3125 C723.39959482 741.16946778 718.71855965 737.26369586 713.9375 733.40625 C711.2830038 731.21474732 708.72999115 728.94502317 706.1875 726.625 C702.25482867 723.04984425 698.21764535 719.67858734 694.04296875 716.390625 C692.01262665 714.78906843 689.9959513 713.17632216 687.98828125 711.546875 C677.61661762 703.14612826 666.96581441 695.14231016 656.25 687.1875 C655.42886719 686.57551758 654.60773438 685.96353516 653.76171875 685.33300781 C643.08299927 677.37506256 632.29550253 669.62809428 621.25 662.1875 C620.54552734 661.71103027 619.84105469 661.23456055 619.11523438 660.74365234 C594.50574239 644.11635756 569.16443441 628.69306392 543.25 614.1875 C541.92234619 613.4442749 541.92234619 613.4442749 540.56787109 612.68603516 C491.5603906 585.39888175 440.18928703 562.6904236 387.25 544.1875 C386.57938538 543.95264893 385.90877075 543.71779785 385.21783447 543.47583008 C300.32613119 513.80938801 211.8989909 495.70461136 56.49255371 482.2857666 C54.1799454 482.18443027 51.86784153 482.07457108 49.55566406 481.96386719 C-45.75111767 477.52130561 -143.99207173 494.31801891 -365.75 562.1875 Z " fill="#030505" transform="translate(2630.75,691.8125)"/>
<path d="M0 0 C0.63470215 0.43900635 1.2694043 0.8780127 1.92333984 1.33032227 C11.73260065 8.3189999 20.19322861 17.01164796 28.6875 25.5 C29.61626953 26.41652344 30.54503906 27.33304688 31.50195312 28.27734375 C36.91321277 33.67721127 41.92729504 39.23061149 46.68066406 45.21923828 C48.47930759 47.44473217 50.35220627 49.54206569 52.3125 51.625 C80.62610113 83.15990904 101.69640592 123.58480017 114.625 163.625 C114.91455566 164.51848145 115.20411133 165.41196289 115.50244141 166.33251953 C138.20657797 237.73228507 130.06145293 314.62045058 106.625 384.625 C106.36783203 385.39344238 106.11066406 386.16188477 105.84570312 386.95361328 C92.21970369 426.51838121 63.69230032 465.68287932 33.625 494.625 C32.8 495.45 31.975 496.275 31.125 497.125 C30.3 497.95 29.475 498.775 28.625 499.625 C27.71234375 500.58986328 27.71234375 500.58986328 26.78125 501.57421875 C21.18653781 507.38177325 15.1150693 512.27812032 8.66699219 517.08789062 C6.35878787 518.82539115 4.07343146 520.59065892 1.7890625 522.359375 C-8.21104135 530.08340574 -18.34603923 537.48776082 -28.828125 544.54296875 C-32.52251733 547.0312691 -36.15833322 549.59079563 -39.77832031 552.18579102 C-51.5225215 560.59736315 -63.69203736 568.25506128 -76.1015625 575.64453125 C-76.67388611 575.9857753 -77.24620972 576.32701935 -77.83587646 576.67860413 C-80.67352429 578.36937805 -83.51520453 580.0526677 -86.36328125 581.72583008 C-87.39066406 582.33450928 -88.41804688 582.94318848 -89.4765625 583.5703125 C-90.39775879 584.11187988 -91.31895508 584.65344727 -92.26806641 585.21142578 C-94.49536723 586.4544112 -94.49536723 586.4544112 -95.375 588.625 C-94.81264648 588.77485352 -94.25029297 588.92470703 -93.67089844 589.07910156 C-86.05080665 591.2261655 -78.86921684 594.20710231 -71.625 597.375 C-70.65756866 597.79617599 -70.65756866 597.79617599 -69.67059326 598.2258606 C-46.08892488 608.52207693 -23.34412881 620.20852458 -1.375 633.625 C-0.53437012 634.13627441 0.30625977 634.64754883 1.17236328 635.17431641 C29.44504657 652.45487715 56.62162133 672.34248597 80.81640625 695.02734375 C82.96469431 697.01428611 85.1353315 698.93887893 87.34985352 700.84936523 C91.31522514 704.31397189 95.10023245 707.92333077 98.8359375 711.6328125 C99.48897858 712.2801535 100.14201965 712.92749451 100.81484985 713.5944519 C102.1858856 714.95611479 103.55553039 716.31917954 104.92382812 717.68359375 C106.98117973 719.73126826 109.04898293 721.76798343 111.1171875 723.8046875 C119.01367816 731.63728848 126.15128664 739.56970719 132.625 748.625 C133.22086914 749.45064453 133.81673828 750.27628906 134.43066406 751.12695312 C136.00189723 753.33817869 137.53992688 755.56754361 139.0625 757.8125 C139.60688721 758.61292725 140.15127441 759.41335449 140.7121582 760.23803711 C146.30407775 768.5287187 151.57171962 776.99651899 156.625 785.625 C157.04346191 786.33946289 157.46192383 787.05392578 157.89306641 787.79003906 C186.70573372 837.41123046 205.40800438 895.19884882 205.86328125 952.90625 C205.87312042 953.94580338 205.88295959 954.98535675 205.89309692 956.05641174 C206.24979084 1003.61537899 202.21873231 1051.36439964 184.1875 1095.875 C183.80890839 1096.81613144 183.80890839 1096.81613144 183.42266846 1097.77627563 C177.52161531 1112.40129097 170.71799022 1126.54527347 163.625 1140.625 C163.16883301 1141.53846191 162.71266602 1142.45192383 162.24267578 1143.39306641 C144.70517165 1178.36693565 121.10069185 1211.68947647 93.1015625 1239.11328125 C91.47240573 1240.72372842 91.47240573 1240.72372842 89.6875 1243.125 C87.27385346 1246.05063217 84.5673646 1248.3561449 81.6875 1250.8125 C79.79931113 1252.47181749 78.05506635 1254.19041186 76.3125 1256 C72.23554964 1260.13192047 67.75969605 1263.72066145 63.22753906 1267.33886719 C61.53569809 1268.69667009 59.85723176 1270.06989406 58.1796875 1271.4453125 C36.5957047 1289.05712183 13.26876771 1303.69200618 -11.375 1316.625 C-12.26026367 1317.09292969 -13.14552734 1317.56085938 -14.05761719 1318.04296875 C-29.08003163 1325.93844458 -44.50025806 1332.63342862 -60.375 1338.625 C-61.03282471 1338.87354736 -61.69064941 1339.12209473 -62.3684082 1339.37817383 C-84.9894035 1347.88232772 -107.65600362 1354.06202122 -131.375 1358.625 C-132.16283875 1358.77819702 -132.95067749 1358.93139404 -133.76239014 1359.0892334 C-168.26753235 1365.78724421 -203.26645495 1370.6087366 -238.375 1372.625 C-239.39515198 1372.68695053 -239.39515198 1372.68695053 -240.43591309 1372.75015259 C-256.45436721 1373.70451008 -272.4565071 1373.82718196 -288.5 1373.8125 C-289.16026436 1373.81208584 -289.82052872 1373.81167168 -290.50080109 1373.81124496 C-311.85398523 1373.79451435 -333.10220254 1373.57038589 -354.375 1371.625 C-355.22846008 1371.54723328 -356.08192017 1371.46946655 -356.96124268 1371.38934326 C-403.68319283 1367.0770438 -449.5870318 1359.97787503 -494.375 1345.625 C-495.96441406 1345.11912354 -495.96441406 1345.11912354 -497.5859375 1344.60302734 C-540.02791219 1330.93780108 -581.26041652 1310.8528708 -617.375 1284.625 C-618.51074463 1283.80950684 -618.51074463 1283.80950684 -619.66943359 1282.97753906 C-628.74397482 1276.45492835 -637.65164662 1269.82296627 -646.08056641 1262.47949219 C-648.20134811 1260.63324713 -650.3387278 1258.81104779 -652.49902344 1257.01123047 C-661.04531461 1249.85959683 -669.02435603 1242.2575677 -676.86401367 1234.34179688 C-678.82994718 1232.35738887 -680.8039848 1230.3813186 -682.77929688 1228.40625 C-688.85210813 1222.31660586 -694.85064975 1216.22416119 -700.375 1209.625 C-701.25142248 1208.61485894 -702.12897669 1207.60569838 -703.0078125 1206.59765625 C-709.93726322 1198.50605627 -716.48191421 1190.16518584 -722.85986328 1181.6328125 C-724.20525181 1179.84994507 -725.57779817 1178.09421127 -726.96484375 1176.34375 C-762.40199094 1129.93659453 -780.34157303 1056.80546918 -784.375 999.625 C-784.43139648 998.84012207 -784.48779297 998.05524414 -784.54589844 997.24658203 C-790.52240129 910.37510713 -765.13641052 810.90707983 -709.6875 742.5 C-708.26073899 740.86556301 -706.82246694 739.24112831 -705.375 737.625 C-704.3834447 736.45850431 -703.39541881 735.2890031 -702.41015625 734.1171875 C-697.76813689 728.60902296 -693.12840141 723.18732323 -687.9375 718.18359375 C-686.21527899 716.46567829 -684.64365727 714.66084357 -683.0625 712.8125 C-677.04795326 705.85396611 -670.47868993 699.4373432 -663.4921875 693.4609375 C-660.96900545 691.2729383 -658.51945481 689.01206887 -656.0625 686.75 C-651.17452124 682.30274064 -646.18053115 678.04651912 -641.00683594 673.93554688 C-639.20940775 672.4920109 -637.43808189 671.01906783 -635.6640625 669.546875 C-623.47889204 659.59562831 -610.29367767 651.57681361 -596.76953125 643.62207031 C-593.68434612 641.80699448 -590.60635174 639.98052612 -587.53125 638.1484375 C-582.15813041 634.95287057 -576.7694922 631.78432796 -571.375 628.625 C-570.43269531 628.07279785 -569.49039063 627.5205957 -568.51953125 626.95166016 C-552.84534216 617.7726332 -537.12978262 608.66497907 -521.375 599.625 C-520.26914551 598.98981445 -519.16329102 598.35462891 -518.02392578 597.70019531 C-514.81057075 595.85740094 -511.5935216 594.02125274 -508.375 592.1875 C-507.39523193 591.62538818 -506.41546387 591.06327637 -505.40600586 590.48413086 C-504.06034546 589.72048218 -504.06034546 589.72048218 -502.6875 588.94140625 C-501.89988281 588.49224854 -501.11226562 588.04309082 -500.30078125 587.58032227 C-498.375 586.625 -498.375 586.625 -496.375 586.625 C-496.375 585.965 -496.375 585.305 -496.375 584.625 C-497.17550781 584.39554688 -497.97601562 584.16609375 -498.80078125 583.9296875 C-503.31662074 582.2812827 -507.3677788 580.08293445 -511.5625 577.75 C-512.43817627 577.2645874 -513.31385254 576.7791748 -514.21606445 576.27905273 C-534.15877026 565.10276466 -553.0185102 552.22929157 -570.81103516 537.88476562 C-572.27858785 536.70265949 -573.75425762 535.53065059 -575.23046875 534.359375 C-581.48117766 529.34437622 -587.37903471 524.01841438 -593.23046875 518.55078125 C-596.03491083 515.93085318 -598.88413503 513.36525074 -601.75 510.8125 C-607.7049587 505.46361949 -613.22218599 499.90371696 -618.44140625 493.8359375 C-620.62095981 491.3437611 -622.8727328 488.92661332 -625.125 486.5 C-630.42180626 480.68956404 -635.25613348 474.57730889 -640.04443359 468.34521484 C-641.28157136 466.74578866 -642.54034315 465.16316052 -643.80078125 463.58203125 C-654.20034244 450.42513959 -663.28436441 436.28907514 -671.9375 421.9375 C-672.41364746 421.14915771 -672.88979492 420.36081543 -673.38037109 419.54858398 C-679.07635245 409.96787449 -683.47582694 400.26146996 -687.1875 389.75 C-687.61836914 388.53038574 -688.04923828 387.31077148 -688.49316406 386.05419922 C-699.09526757 355.72370384 -706.24127123 324.61774894 -709.375 292.625 C-709.44557617 291.92938965 -709.51615234 291.2337793 -709.58886719 290.51708984 C-716.76373206 216.20598941 -696.329799 124.80051683 -648.93359375 65.57421875 C-647.53113492 64.0103941 -646.10563535 62.46632215 -644.640625 60.9609375 C-642.70070259 58.9608106 -640.86658086 56.92183153 -639.0390625 54.8203125 C-623.83840248 37.35253163 -607.20239483 21.39020626 -589.375 6.625 C-588.80136719 6.14643555 -588.22773438 5.66787109 -587.63671875 5.17480469 C-561.96286756 -16.15840093 -533.35022766 -33.86770987 -503.34619141 -48.41601562 C-501.39557424 -49.36499063 -499.45376524 -50.33050718 -497.51171875 -51.296875 C-411.24673142 -93.65268587 -307.31991873 -102.507932 0 0 Z M-348.375 64.625 C-349.5192041 64.87169434 -350.6634082 65.11838867 -351.84228516 65.37255859 C-376.92624948 70.94031686 -401.35647281 79.11573641 -424.375 90.625 C-424.375 91.615 -424.375 92.605 -424.375 93.625 C-425.23351563 93.88667969 -426.09203125 94.14835937 -426.9765625 94.41796875 C-445.08646105 100.85010513 -459.74594075 115.59833011 -473.375 128.625 C-474.12265625 129.33140625 -474.8703125 130.0378125 -475.640625 130.765625 C-481.03745139 135.99247261 -485.73801545 141.72194458 -490.375 147.625 C-491.13039063 148.58664062 -491.88578125 149.54828125 -492.6640625 150.5390625 C-519.58845158 185.60553488 -532.91418337 228.61207442 -527.55078125 272.7824707 C-526.94744967 277.08810114 -526.20029179 281.35675805 -525.375 285.625 C-525.13354248 286.88376953 -525.13354248 286.88376953 -524.88720703 288.16796875 C-520.97544881 307.79815601 -513.93015145 326.43154392 -505.6875 344.625 C-505.02886963 346.08353394 -505.02886963 346.08353394 -504.35693359 347.5715332 C-500.32066151 356.23480653 -495.18562023 363.85048157 -489.25 371.3125 C-488.78625977 371.89845947 -488.32251953 372.48441895 -487.84472656 373.08813477 C-480.95001574 381.73646024 -473.92188441 390.37158597 -465.94921875 398.0546875 C-464.16187556 399.8375956 -462.52232352 401.71221375 -460.875 403.625 C-455.82869262 409.45803681 -450.38908485 414.70096374 -444.55078125 419.734375 C-442.08770847 421.87463932 -439.66870212 424.05975101 -437.25 426.25 C-431.4670703 432.40629748 -431.4670703 432.40629748 -424.375 435.625 C-424.27711182 436.48339478 -424.27711182 436.48339478 -424.17724609 437.35913086 C-421.28001074 445.54210144 -407.76988124 451.94715879 -400.75 456.5625 C-399.69949463 457.25633789 -398.64898926 457.95017578 -397.56665039 458.66503906 C-375.63982859 473.0517413 -352.53127047 485.39840172 -328.375 495.625 C-327.57658691 495.9643457 -326.77817383 496.30369141 -325.95556641 496.65332031 C-323.6027226 497.64223131 -321.24174251 498.60738365 -318.875 499.5625 C-318.19397217 499.84520752 -317.51294434 500.12791504 -316.8112793 500.41918945 C-311.7765101 502.39252834 -306.84612776 503.24596691 -301.51123047 504.05541992 C-295.22106655 505.19779517 -289.17621542 507.3314423 -283.11132812 509.32226562 C-272.29932816 512.6753101 -264.94642807 510.76826592 -254.4375 507.1875 C-249.12141548 505.39077457 -243.94103681 503.65515207 -238.40234375 502.69921875 C-232.52177581 501.60048563 -227.30963405 499.3228885 -221.875 496.875 C-220.79911621 496.39474365 -219.72323242 495.9144873 -218.61474609 495.41967773 C-193.99426121 484.22871027 -170.59519681 470.68994854 -149.24511719 454.07763672 C-147.41446028 452.65565126 -145.57198749 451.25039834 -143.7265625 449.84765625 C-99.13253791 415.7104143 -62.65340617 362.09851416 -54.65136719 305.77539062 C-48.38011929 256.97932042 -60.21707099 210.36737816 -82.6875 166.9375 C-83.07139893 166.19016602 -83.45529785 165.44283203 -83.85083008 164.67285156 C-87.56907607 157.73595648 -91.57385529 152.64850003 -98.375 148.625 C-101.02341668 146.18809406 -103.50078158 143.58853981 -106 141 C-112.17306608 134.72267334 -118.40616767 129.01449355 -125.375 123.625 C-126.46258108 122.74943349 -127.54842743 121.87170915 -128.6328125 120.9921875 C-135.29317368 115.62457053 -142.08518869 110.64290843 -149.31347656 106.06079102 C-152.12194127 104.25573371 -154.52194196 102.47645086 -156.875 100.09765625 C-159.74039286 97.26360362 -162.80782277 95.35611568 -166.3125 93.4375 C-167.00214844 93.05730713 -167.69179687 92.67711426 -168.40234375 92.28540039 C-199.14141258 75.66776778 -232.66569247 65.48040962 -267.375 61.625 C-268.14166992 61.5314624 -268.90833984 61.4379248 -269.69824219 61.34155273 C-295.44974351 58.54433745 -323.06887291 59.14595361 -348.375 64.625 Z M-531.375 246.625 C-531.375 249.925 -531.375 253.225 -531.375 256.625 C-531.045 256.625 -530.715 256.625 -530.375 256.625 C-530.375 253.325 -530.375 250.025 -530.375 246.625 C-530.705 246.625 -531.035 246.625 -531.375 246.625 Z M-325.88671875 674.7578125 C-326.95670609 675.09985466 -326.95670609 675.09985466 -328.04830933 675.44880676 C-330.39068164 676.20328895 -332.72682881 676.97503827 -335.0625 677.75 C-335.87234344 678.01587921 -336.68218689 678.28175842 -337.51657104 678.55569458 C-365.57831606 687.78842267 -392.81947873 698.6804869 -419.375 711.625 C-420.19887207 712.02444824 -421.02274414 712.42389648 -421.87158203 712.83544922 C-426.40411167 715.04043714 -430.89426663 717.31674342 -435.375 719.625 C-436.51324219 720.18574219 -437.65148438 720.74648437 -438.82421875 721.32421875 C-456.53164423 730.30455224 -473.14496624 741.91566671 -488.375 754.625 C-488.91092773 755.06618164 -489.44685547 755.50736328 -489.99902344 755.96191406 C-503.68251 767.23114427 -516.83841501 779.14303009 -528.375 792.625 C-529.17679688 793.53765625 -529.97859375 794.4503125 -530.8046875 795.390625 C-547.54224819 814.59614087 -561.48399552 836.13589972 -573.375 858.625 C-573.73795166 859.305625 -574.10090332 859.98625 -574.47485352 860.6875 C-577.19330844 865.92462509 -578.8078632 871.17061405 -580.34765625 876.8671875 C-581.375 879.625 -581.375 879.625 -584.375 881.625 C-585.29642296 883.88789978 -585.29642296 883.88789978 -585.875 886.5859375 C-586.12096924 887.60550537 -586.36693848 888.62507324 -586.62036133 889.67553711 C-586.99390747 891.32114624 -586.99390747 891.32114624 -587.375 893 C-587.63627686 894.12092041 -587.89755371 895.24184082 -588.16674805 896.39672852 C-590.44006646 906.40003883 -592.16469404 916.44020312 -593.375 926.625 C-593.4685376 927.36588867 -593.5620752 928.10677734 -593.65844727 928.87011719 C-594.54239748 936.56231401 -594.65823856 944.26358759 -594.6875 952 C-594.69078308 952.71355652 -594.69406616 953.42711304 -594.69744873 954.16229248 C-594.72235409 971.05893567 -593.44543636 988.42433748 -588.375 1004.625 C-587.62858659 1007.34194481 -586.8921946 1010.06145473 -586.15625 1012.78125 C-578.18420207 1041.79950445 -564.31557328 1068.56174068 -546.375 1092.625 C-545.95573242 1093.18993164 -545.53646484 1093.75486328 -545.10449219 1094.33691406 C-535.04913323 1108.52040082 -535.04913323 1108.52040082 -521.375 1118.625 C-519.3046875 1120.359375 -519.3046875 1120.359375 -517.25 1122.375 C-512.07672903 1127.18216256 -506.53029932 1131.40031797 -500.875 1135.625 C-499.97765137 1136.2962793 -499.08030273 1136.96755859 -498.15576172 1137.65917969 C-493.93166265 1140.90632748 -493.93166265 1140.90632748 -489.375 1143.625 C-489.15457031 1144.2025 -488.93414063 1144.78 -488.70703125 1145.375 C-486.65719413 1148.83748147 -483.40264003 1150.54269274 -480.0625 1152.625 C-479.30904297 1153.10138916 -478.55558594 1153.57777832 -477.77929688 1154.06860352 C-453.24490046 1169.42763637 -427.76130414 1182.17657904 -400.375 1191.625 C-399.54838867 1191.91068848 -398.72177734 1192.19637695 -397.87011719 1192.49072266 C-392.412739 1194.3498172 -386.91876971 1196.04294138 -381.375 1197.625 C-380.50568848 1197.8734668 -379.63637695 1198.12193359 -378.74072266 1198.37792969 C-361.19242862 1203.29033132 -343.40242598 1206.19103002 -325.375 1208.625 C-324.40981445 1208.75922363 -323.44462891 1208.89344727 -322.45019531 1209.03173828 C-245.7202847 1219.28257752 -157.88063143 1204.37234216 -92.80859375 1161.87890625 C-91.07867113 1160.57915662 -91.07867113 1160.57915662 -90.375 1157.625 C-88.28019183 1155.99045954 -86.19612365 1154.48541052 -84 1153 C-70.00693974 1143.25896479 -57.42122646 1132.00989932 -45.62890625 1119.71875 C-43.375 1117.625 -43.375 1117.625 -40.875 1116.13671875 C-35.77747058 1113.05430643 -32.17274811 1108.1461287 -28.375 1103.625 C-27.64821045 1102.76382568 -27.64821045 1102.76382568 -26.90673828 1101.88525391 C-3.59353173 1073.79531205 8.43693471 1033.40760083 12.625 997.625 C12.7178125 996.87049561 12.810625 996.11599121 12.90625 995.33862305 C17.35642237 955.94267747 9.26008105 915.02435684 -8.375 879.625 C-9.035 879.625 -9.695 879.625 -10.375 879.625 C-10.63490723 879.0988208 -10.89481445 878.5726416 -11.16259766 878.03051758 C-22.31425257 855.64744949 -35.01311207 834.50564762 -54.41796875 818.328125 C-56.85769231 816.20493244 -59.10379205 813.92722596 -61.375 811.625 C-65.55351143 807.40850211 -69.85503285 803.46810019 -74.375 799.625 C-75.54355219 798.6165611 -76.71146298 797.60737871 -77.87890625 796.59765625 C-79.14826367 795.50240267 -80.41779614 794.40735194 -81.6875 793.3125 C-82.29883789 792.78414551 -82.91017578 792.25579102 -83.54003906 791.71142578 C-84.12108398 791.21239746 -84.70212891 790.71336914 -85.30078125 790.19921875 C-86.08062378 789.52765747 -86.08062378 789.52765747 -86.8762207 788.8425293 C-88.30721261 787.6800669 -89.84098792 786.64767472 -91.375 785.625 C-91.75269531 784.903125 -92.13039063 784.18125 -92.51953125 783.4375 C-95.28676282 779.24295952 -99.08458687 776.63496499 -103.0625 773.625 C-103.84044922 773.02171875 -104.61839844 772.4184375 -105.41992188 771.796875 C-113.62805079 765.40115828 -113.62805079 765.40115828 -122.83007812 760.66772461 C-125.42891169 759.6029109 -127.5100986 758.3384466 -129.82421875 756.75390625 C-130.66275391 756.18526855 -131.50128906 755.61663086 -132.36523438 755.03076172 C-133.25533203 754.42248535 -134.14542969 753.81420898 -135.0625 753.1875 C-144.67155566 746.70786208 -154.40477014 740.53162526 -164.375 734.625 C-165.13586914 734.1697998 -165.89673828 733.71459961 -166.68066406 733.24560547 C-207.30906261 709.0283882 -251.16611678 690.8309596 -296.3125 676.9375 C-297.3760672 676.6062059 -297.3760672 676.6062059 -298.46112061 676.26821899 C-300.47996196 675.64275589 -302.50259542 675.03181321 -304.52734375 674.42578125 C-305.68226318 674.07684814 -306.83718262 673.72791504 -308.02709961 673.3684082 C-314.47245121 671.93720456 -319.70278941 672.71173656 -325.88671875 674.7578125 Z " fill="#030505" transform="translate(2954.375,1545.375)"/>
</svg>
